{
	"patcher" : 	{
		"fileversion" : 1,
		"rect" : [ 201.0, 182.0, 1156.0, 638.0 ],
		"bglocked" : 0,
		"defrect" : [ 201.0, 182.0, 1156.0, 638.0 ],
		"openrect" : [ 0.0, 0.0, 0.0, 0.0 ],
		"openinpresentation" : 1,
		"default_fontsize" : 10.0,
		"default_fontface" : 0,
		"default_fontname" : "Verdana",
		"gridonopen" : 0,
		"gridsize" : [ 5.0, 5.0 ],
		"gridsnaponopen" : 0,
		"toolbarvisible" : 1,
		"boxanimatetime" : 200,
		"imprint" : 0,
		"enablehscroll" : 1,
		"enablevscroll" : 1,
		"devicewidth" : 0.0,
		"boxes" : [ 			{
				"box" : 				{
					"fontname" : "Verdana",
					"fontsize" : 10.0,
					"id" : "obj-36",
					"maxclass" : "message",
					"numinlets" : 2,
					"numoutlets" : 1,
					"outlettype" : [ "" ],
					"patching_rect" : [ 85.0, 115.0, 213.0, 17.0 ],
					"text" : "/preset/store 1 default, /preset/write"
				}

			}
, 			{
				"box" : 				{
					"fontname" : "Verdana",
					"fontsize" : 10.0,
					"id" : "obj-37",
					"maxclass" : "message",
					"numinlets" : 2,
					"numoutlets" : 1,
					"outlettype" : [ "" ],
					"patching_rect" : [ 120.0, 140.0, 140.0, 17.0 ],
					"text" : "/documentation/generate"
				}

			}
, 			{
				"box" : 				{
					"fontname" : "Verdana",
					"fontsize" : 10.0,
					"id" : "obj-32",
					"maxclass" : "newobj",
					"numinlets" : 1,
					"numoutlets" : 2,
					"outlettype" : [ "", "" ],
					"patching_rect" : [ 345.0, 140.0, 48.0, 19.0 ],
					"text" : "jcom.in"
				}

			}
, 			{
				"box" : 				{
					"fontname" : "Verdana",
					"fontsize" : 10.0,
					"id" : "obj-6",
					"maxclass" : "newobj",
					"numinlets" : 1,
					"numoutlets" : 1,
					"outlettype" : [ "" ],
					"patcher" : 					{
						"fileversion" : 1,
						"rect" : [ 52.0, 74.0, 600.0, 426.0 ],
						"bglocked" : 0,
						"defrect" : [ 52.0, 74.0, 600.0, 426.0 ],
						"openrect" : [ 0.0, 0.0, 0.0, 0.0 ],
						"openinpresentation" : 0,
						"default_fontsize" : 10.0,
						"default_fontface" : 0,
						"default_fontname" : "Verdana",
						"gridonopen" : 0,
						"gridsize" : [ 5.0, 5.0 ],
						"gridsnaponopen" : 0,
						"toolbarvisible" : 1,
						"boxanimatetime" : 200,
						"imprint" : 0,
						"enablehscroll" : 1,
						"enablevscroll" : 1,
						"devicewidth" : 0.0,
						"boxes" : [ 							{
								"box" : 								{
									"fontname" : "Verdana",
									"fontsize" : 10.0,
									"id" : "obj-1",
									"maxclass" : "newobj",
									"numinlets" : 6,
									"numoutlets" : 1,
									"outlettype" : [ "" ],
									"patching_rect" : [ 60.0, 70.0, 133.0, 19.0 ],
									"text" : "scale 0. 360. -180. 180."
								}

							}
, 							{
								"box" : 								{
									"comment" : "",
									"id" : "obj-2",
									"maxclass" : "inlet",
									"numinlets" : 0,
									"numoutlets" : 1,
									"outlettype" : [ "float" ],
									"patching_rect" : [ 60.0, 30.0, 25.0, 25.0 ]
								}

							}
, 							{
								"box" : 								{
									"comment" : "",
									"id" : "obj-3",
									"maxclass" : "outlet",
									"numinlets" : 1,
									"numoutlets" : 0,
									"patching_rect" : [ 60.0, 100.0, 25.0, 25.0 ]
								}

							}
 ],
						"lines" : [ 							{
								"patchline" : 								{
									"destination" : [ "obj-3", 0 ],
									"hidden" : 0,
									"midpoints" : [  ],
									"source" : [ "obj-1", 0 ]
								}

							}
, 							{
								"patchline" : 								{
									"destination" : [ "obj-1", 0 ],
									"hidden" : 0,
									"midpoints" : [  ],
									"source" : [ "obj-2", 0 ]
								}

							}
 ]
					}
,
					"patching_rect" : [ 515.0, 208.0, 75.0, 19.0 ],
					"saved_object_attributes" : 					{
						"fontsize" : 10.0,
						"default_fontface" : 0,
						"globalpatchername" : "",
						"default_fontname" : "Verdana",
						"fontname" : "Verdana",
						"default_fontsize" : 10.0,
						"fontface" : 0
					}
,
					"text" : "p dial2param"
				}

			}
, 			{
				"box" : 				{
					"fontname" : "Verdana",
					"fontsize" : 10.0,
					"id" : "obj-7",
					"maxclass" : "newobj",
					"numinlets" : 1,
					"numoutlets" : 1,
					"outlettype" : [ "" ],
					"patcher" : 					{
						"fileversion" : 1,
						"rect" : [ 52.0, 74.0, 290.0, 340.0 ],
						"bglocked" : 0,
						"defrect" : [ 52.0, 74.0, 290.0, 340.0 ],
						"openrect" : [ 0.0, 0.0, 0.0, 0.0 ],
						"openinpresentation" : 0,
						"default_fontsize" : 10.0,
						"default_fontface" : 0,
						"default_fontname" : "Verdana",
						"gridonopen" : 0,
						"gridsize" : [ 5.0, 5.0 ],
						"gridsnaponopen" : 0,
						"toolbarvisible" : 1,
						"boxanimatetime" : 200,
						"imprint" : 0,
						"enablehscroll" : 1,
						"enablevscroll" : 1,
						"devicewidth" : 0.0,
						"boxes" : [ 							{
								"box" : 								{
									"fontname" : "Verdana",
									"fontsize" : 10.0,
									"id" : "obj-1",
									"maxclass" : "newobj",
									"numinlets" : 1,
									"numoutlets" : 1,
									"outlettype" : [ "" ],
									"patching_rect" : [ 55.0, 255.0, 68.0, 19.0 ],
									"text" : "prepend set"
								}

							}
, 							{
								"box" : 								{
									"fontname" : "Verdana",
									"fontsize" : 10.0,
									"id" : "obj-2",
									"maxclass" : "newobj",
									"numinlets" : 1,
									"numoutlets" : 2,
									"outlettype" : [ "", "" ],
									"patching_rect" : [ 55.0, 95.0, 57.0, 19.0 ],
									"text" : "route set"
								}

							}
, 							{
								"box" : 								{
									"fontname" : "Verdana",
									"fontsize" : 10.0,
									"id" : "obj-3",
									"maxclass" : "newobj",
									"numinlets" : 6,
									"numoutlets" : 1,
									"outlettype" : [ "" ],
									"patching_rect" : [ 55.0, 230.0, 132.0, 19.0 ],
									"text" : "scale -180. 180. 0. 360."
								}

							}
, 							{
								"box" : 								{
									"fontname" : "Verdana",
									"fontsize" : 10.0,
									"id" : "obj-4",
									"maxclass" : "newobj",
									"numinlets" : 2,
									"numoutlets" : 1,
									"outlettype" : [ "float" ],
									"patching_rect" : [ 135.0, 195.0, 43.0, 19.0 ],
									"text" : "- 360."
								}

							}
, 							{
								"box" : 								{
									"fontname" : "Verdana",
									"fontsize" : 10.0,
									"id" : "obj-5",
									"maxclass" : "newobj",
									"numinlets" : 3,
									"numoutlets" : 2,
									"outlettype" : [ "float", "float" ],
									"patching_rect" : [ 135.0, 170.0, 87.0, 19.0 ],
									"text" : "split 180. 360."
								}

							}
, 							{
								"box" : 								{
									"fontname" : "Verdana",
									"fontsize" : 10.0,
									"id" : "obj-6",
									"maxclass" : "newobj",
									"numinlets" : 2,
									"numoutlets" : 1,
									"outlettype" : [ "float" ],
									"patching_rect" : [ 55.0, 180.0, 45.0, 19.0 ],
									"text" : "+ 360."
								}

							}
, 							{
								"box" : 								{
									"fontname" : "Verdana",
									"fontsize" : 10.0,
									"id" : "obj-7",
									"maxclass" : "newobj",
									"numinlets" : 3,
									"numoutlets" : 2,
									"outlettype" : [ "float", "float" ],
									"patching_rect" : [ 55.0, 145.0, 97.0, 19.0 ],
									"text" : "split -360. -180."
								}

							}
, 							{
								"box" : 								{
									"fontname" : "Verdana",
									"fontsize" : 10.0,
									"id" : "obj-8",
									"maxclass" : "newobj",
									"numinlets" : 2,
									"numoutlets" : 1,
									"outlettype" : [ "int" ],
									"patching_rect" : [ 55.0, 120.0, 47.0, 19.0 ],
									"text" : "% 360."
								}

							}
, 							{
								"box" : 								{
									"comment" : "",
									"id" : "obj-9",
									"maxclass" : "inlet",
									"numinlets" : 0,
									"numoutlets" : 1,
									"outlettype" : [ "" ],
									"patching_rect" : [ 55.0, 50.0, 25.0, 25.0 ]
								}

							}
, 							{
								"box" : 								{
									"comment" : "",
									"id" : "obj-10",
									"maxclass" : "outlet",
									"numinlets" : 1,
									"numoutlets" : 0,
									"patching_rect" : [ 55.0, 285.0, 25.0, 25.0 ]
								}

							}
 ],
						"lines" : [ 							{
								"patchline" : 								{
									"destination" : [ "obj-10", 0 ],
									"hidden" : 0,
									"midpoints" : [  ],
									"source" : [ "obj-1", 0 ]
								}

							}
, 							{
								"patchline" : 								{
									"destination" : [ "obj-8", 0 ],
									"hidden" : 0,
									"midpoints" : [  ],
									"source" : [ "obj-2", 0 ]
								}

							}
, 							{
								"patchline" : 								{
									"destination" : [ "obj-1", 0 ],
									"hidden" : 0,
									"midpoints" : [  ],
									"source" : [ "obj-3", 0 ]
								}

							}
, 							{
								"patchline" : 								{
									"destination" : [ "obj-3", 0 ],
									"hidden" : 0,
									"midpoints" : [ 144.5, 221.0, 64.5, 221.0 ],
									"source" : [ "obj-4", 0 ]
								}

							}
, 							{
								"patchline" : 								{
									"destination" : [ "obj-3", 0 ],
									"hidden" : 0,
									"midpoints" : [ 212.5, 221.0, 64.5, 221.0 ],
									"source" : [ "obj-5", 1 ]
								}

							}
, 							{
								"patchline" : 								{
									"destination" : [ "obj-4", 0 ],
									"hidden" : 0,
									"midpoints" : [  ],
									"source" : [ "obj-5", 0 ]
								}

							}
, 							{
								"patchline" : 								{
									"destination" : [ "obj-3", 0 ],
									"hidden" : 0,
									"midpoints" : [  ],
									"source" : [ "obj-6", 0 ]
								}

							}
, 							{
								"patchline" : 								{
									"destination" : [ "obj-5", 0 ],
									"hidden" : 0,
									"midpoints" : [  ],
									"source" : [ "obj-7", 1 ]
								}

							}
, 							{
								"patchline" : 								{
									"destination" : [ "obj-6", 0 ],
									"hidden" : 0,
									"midpoints" : [  ],
									"source" : [ "obj-7", 0 ]
								}

							}
, 							{
								"patchline" : 								{
									"destination" : [ "obj-7", 0 ],
									"hidden" : 0,
									"midpoints" : [  ],
									"source" : [ "obj-8", 0 ]
								}

							}
, 							{
								"patchline" : 								{
									"destination" : [ "obj-2", 0 ],
									"hidden" : 0,
									"midpoints" : [  ],
									"source" : [ "obj-9", 0 ]
								}

							}
 ]
					}
,
					"patching_rect" : [ 515.0, 135.0, 75.0, 19.0 ],
					"saved_object_attributes" : 					{
						"fontsize" : 10.0,
						"default_fontface" : 0,
						"globalpatchername" : "",
						"default_fontname" : "Verdana",
						"fontname" : "Verdana",
						"default_fontsize" : 10.0,
						"fontface" : 0
					}
,
					"text" : "p param2dial"
				}

			}
, 			{
				"box" : 				{
					"bgcolor" : [ 0.866667, 0.866667, 0.866667, 0.0 ],
					"degrees" : 360,
					"fgcolor" : [ 0.666667, 0.666667, 0.666667, 1.0 ],
					"id" : "obj-8",
					"maxclass" : "dial",
					"needlecolor" : [ 0.0, 0.0, 0.0, 1.0 ],
					"numinlets" : 1,
					"numoutlets" : 1,
					"outlettype" : [ "float" ],
					"outlinecolor" : [ 0.882353, 0.882353, 0.882353, 1.0 ],
					"patching_rect" : [ 515.0, 160.0, 40.0, 40.0 ],
					"presentation" : 1,
					"presentation_rect" : [ 85.0, 15.0, 57.0, 57.0 ],
					"size" : 360.0,
					"varname" : "RotationDial",
					"vtracking" : 0
				}

			}
, 			{
				"box" : 				{
					"comment" : "",
					"id" : "obj-11",
					"maxclass" : "outlet",
					"numinlets" : 1,
					"numoutlets" : 0,
					"patching_rect" : [ 435.0, 225.0, 25.0, 25.0 ]
				}

			}
, 			{
				"box" : 				{
					"fontname" : "Verdana",
					"fontsize" : 10.0,
					"id" : "obj-15",
					"maxclass" : "newobj",
					"numinlets" : 2,
					"numoutlets" : 2,
					"outlettype" : [ "", "audio.connect" ],
					"patcher" : 					{
						"fileversion" : 1,
						"rect" : [ 45.0, 74.0, 529.0, 486.0 ],
						"bglocked" : 0,
						"defrect" : [ 45.0, 74.0, 529.0, 486.0 ],
						"openrect" : [ 0.0, 0.0, 0.0, 0.0 ],
						"openinpresentation" : 0,
						"default_fontsize" : 10.0,
						"default_fontface" : 0,
						"default_fontname" : "Verdana",
						"gridonopen" : 0,
						"gridsize" : [ 5.0, 5.0 ],
						"gridsnaponopen" : 0,
						"toolbarvisible" : 1,
						"boxanimatetime" : 200,
						"imprint" : 0,
						"enablehscroll" : 1,
						"enablevscroll" : 1,
						"devicewidth" : 0.0,
						"boxes" : [ 							{
								"box" : 								{
									"comment" : "",
									"id" : "obj-23",
									"maxclass" : "outlet",
									"numinlets" : 1,
									"numoutlets" : 0,
									"patching_rect" : [ 50.0, 410.0, 25.0, 25.0 ]
								}

							}
, 							{
								"box" : 								{
									"fontname" : "Verdana",
									"fontsize" : 10.0,
									"id" : "obj-22",
									"maxclass" : "newobj",
									"numinlets" : 32,
									"numoutlets" : 1,
									"outlettype" : [ "audio.connect" ],
									"patching_rect" : [ 275.0, 335.0, 437.5, 19.0 ],
									"text" : "jcom.multi.in~"
								}

							}
, 							{
								"box" : 								{
									"fontname" : "Verdana",
									"fontsize" : 10.0,
									"id" : "obj-21",
									"maxclass" : "newobj",
									"numinlets" : 2,
									"numoutlets" : 32,
									"outlettype" : [ "signal", "signal", "signal", "signal", "signal", "signal", "signal", "signal", "signal", "signal", "signal", "signal", "signal", "signal", "signal", "signal", "signal", "signal", "signal", "signal", "signal", "signal", "signal", "signal", "signal", "signal", "signal", "signal", "signal", "signal", "signal", "signal" ],
									"patching_rect" : [ 275.0, 105.0, 437.5, 19.0 ],
									"text" : "jcom.multi.out~"
								}

							}
, 							{
								"box" : 								{
									"fontname" : "Verdana",
									"fontsize" : 10.0,
									"id" : "obj-1",
									"maxclass" : "newobj",
									"numinlets" : 0,
									"numoutlets" : 0,
									"patcher" : 									{
										"fileversion" : 1,
										"rect" : [ 45.0, 74.0, 600.0, 426.0 ],
										"bglocked" : 0,
										"defrect" : [ 45.0, 74.0, 600.0, 426.0 ],
										"openrect" : [ 0.0, 0.0, 0.0, 0.0 ],
										"openinpresentation" : 0,
										"default_fontsize" : 10.0,
										"default_fontface" : 0,
										"default_fontname" : "Verdana",
										"gridonopen" : 0,
										"gridsize" : [ 5.0, 5.0 ],
										"gridsnaponopen" : 0,
										"toolbarvisible" : 1,
										"boxanimatetime" : 200,
										"imprint" : 0,
										"enablehscroll" : 1,
										"enablevscroll" : 1,
										"devicewidth" : 0.0,
										"boxes" : [ 											{
												"box" : 												{
													"fontname" : "Verdana",
													"fontsize" : 10.0,
													"id" : "obj-6",
													"maxclass" : "newobj",
													"numinlets" : 1,
													"numoutlets" : 2,
													"outlettype" : [ "", "" ],
													"patching_rect" : [ 50.0, 45.0, 54.0, 19.0 ],
													"text" : "jcom.init"
												}

											}
, 											{
												"box" : 												{
													"id" : "obj-1",
													"maxclass" : "button",
													"numinlets" : 1,
													"numoutlets" : 1,
													"outlettype" : [ "bang" ],
													"patching_rect" : [ 140.0, 50.0, 15.0, 15.0 ]
												}

											}
, 											{
												"box" : 												{
													"#init" : "",
													"#loadbang" : 0,
													"#triggerall" : 0,
													"#untuple" : 0,
													"fontname" : "Geneva",
													"fontsize" : 10.0,
													"ftm_objref_conv" : 0,
													"ftm_scope" : 1,
													"id" : "obj-2",
													"maxclass" : "ftm.mess",
													"numinlets" : 2,
													"numoutlets" : 1,
													"outlettype" : [ "" ],
													"patching_rect" : [ 80.0, 170.0, 200.960938, 18.0 ],
													"presentation_rect" : [ 80.0, 170.0, 200.960938, 18.0 ],
													"text" : [ "_($rotate set 0 0 1), ($rotate set 3 3 1)" ]
												}

											}
, 											{
												"box" : 												{
													"fontname" : "Verdana",
													"fontsize" : 10.0,
													"id" : "obj-4",
													"maxclass" : "newobj",
													"numinlets" : 2,
													"numoutlets" : 1,
													"outlettype" : [ "int" ],
													"patching_rect" : [ 80.0, 142.0, 30.0, 19.0 ],
													"text" : "- 1"
												}

											}
, 											{
												"box" : 												{
													"fontname" : "Verdana",
													"fontsize" : 10.0,
													"id" : "obj-5",
													"maxclass" : "newobj",
													"numinlets" : 2,
													"numoutlets" : 3,
													"outlettype" : [ "bang", "bang", "int" ],
													"patching_rect" : [ 50.0, 95.0, 44.0, 19.0 ],
													"text" : "uzi 4"
												}

											}
 ],
										"lines" : [ 											{
												"patchline" : 												{
													"destination" : [ "obj-5", 0 ],
													"hidden" : 0,
													"midpoints" : [ 149.0, 78.0, 59.5, 78.0 ],
													"source" : [ "obj-1", 0 ]
												}

											}
, 											{
												"patchline" : 												{
													"destination" : [ "obj-2", 0 ],
													"hidden" : 0,
													"midpoints" : [  ],
													"source" : [ "obj-4", 0 ]
												}

											}
, 											{
												"patchline" : 												{
													"destination" : [ "obj-4", 0 ],
													"hidden" : 0,
													"midpoints" : [  ],
													"source" : [ "obj-5", 2 ]
												}

											}
, 											{
												"patchline" : 												{
													"destination" : [ "obj-5", 0 ],
													"hidden" : 0,
													"midpoints" : [  ],
													"source" : [ "obj-6", 0 ]
												}

											}
 ]
									}
,
									"patching_rect" : [ 45.0, 275.0, 63.0, 19.0 ],
									"saved_object_attributes" : 									{
										"fontsize" : 10.0,
										"default_fontface" : 0,
										"globalpatchername" : "",
										"default_fontname" : "Verdana",
										"fontname" : "Verdana",
										"default_fontsize" : 10.0,
										"fontface" : 0
									}
,
									"text" : "p Initialise"
								}

							}
, 							{
								"box" : 								{
									"fontname" : "Verdana",
									"fontsize" : 10.0,
									"id" : "obj-2",
									"maxclass" : "newobj",
									"numinlets" : 2,
									"numoutlets" : 1,
									"outlettype" : [ "" ],
									"patcher" : 									{
										"fileversion" : 1,
										"rect" : [ 45.0, 74.0, 572.0, 300.0 ],
										"bglocked" : 0,
										"defrect" : [ 45.0, 74.0, 572.0, 300.0 ],
										"openrect" : [ 0.0, 0.0, 0.0, 0.0 ],
										"openinpresentation" : 0,
										"default_fontsize" : 10.0,
										"default_fontface" : 0,
										"default_fontname" : "Verdana",
										"gridonopen" : 0,
										"gridsize" : [ 5.0, 5.0 ],
										"gridsnaponopen" : 0,
										"toolbarvisible" : 1,
										"boxanimatetime" : 200,
										"imprint" : 0,
										"enablehscroll" : 1,
										"enablevscroll" : 1,
										"devicewidth" : 0.0,
										"boxes" : [ 											{
												"box" : 												{
													"fontname" : "Verdana",
													"fontsize" : 10.0,
													"id" : "obj-11",
													"maxclass" : "newobj",
													"numinlets" : 1,
													"numoutlets" : 2,
													"outlettype" : [ "", "" ],
													"patching_rect" : [ 140.0, 85.0, 320.0, 19.0 ],
													"text" : "jcom.dataspace @dataspace gain @input midi @output linear"
												}

											}
, 											{
												"box" : 												{
													"#init" : "",
													"#loadbang" : 0,
													"#triggerall" : 0,
													"#untuple" : 0,
													"fontname" : "Geneva",
													"fontsize" : 10.0,
													"ftm_objref_conv" : 0,
													"ftm_scope" : 0,
													"id" : "obj-2",
													"maxclass" : "ftm.mess",
													"numinlets" : 2,
													"numoutlets" : 1,
													"outlettype" : [ "" ],
													"patching_rect" : [ 50.0, 128.0, 65.389648, 18.0 ],
													"presentation_rect" : [ 50.0, 128.0, 65.389648, 18.0 ],
													"text" : [ "_($1 mul $2)" ]
												}

											}
, 											{
												"box" : 												{
													"#init" : "",
													"#loadbang" : 0,
													"#triggerall" : 0,
													"#untuple" : 0,
													"fontname" : "Geneva",
													"fontsize" : 10.0,
													"ftm_objref_conv" : 0,
													"ftm_scope" : 0,
													"id" : "obj-3",
													"maxclass" : "ftm.mess",
													"numinlets" : 2,
													"numoutlets" : 1,
													"outlettype" : [ "" ],
													"patching_rect" : [ 50.0, 55.0, 42.743164, 18.0 ],
													"presentation_rect" : [ 50.0, 55.0, 42.743164, 18.0 ],
													"text" : [ "_$rotate" ]
												}

											}
, 											{
												"box" : 												{
													"fontname" : "Verdana",
													"fontsize" : 10.0,
													"id" : "obj-4",
													"maxclass" : "newobj",
													"numinlets" : 2,
													"numoutlets" : 1,
													"outlettype" : [ "" ],
													"patching_rect" : [ 50.0, 85.0, 82.0, 19.0 ],
													"saved_object_attributes" : 													{
														"ftm_scope" : 0,
														"ftm_objref_conv" : 0
													}
,
													"text" : "ftm.copy fmat"
												}

											}
, 											{
												"box" : 												{
													"#init" : "",
													"#loadbang" : 0,
													"#triggerall" : 0,
													"#untuple" : 0,
													"fontname" : "Geneva",
													"fontsize" : 10.0,
													"ftm_objref_conv" : 0,
													"ftm_scope" : 0,
													"id" : "obj-6",
													"maxclass" : "ftm.mess",
													"numinlets" : 3,
													"numins" : 3,
													"numoutlets" : 1,
													"outlettype" : [ "" ],
													"patching_rect" : [ 50.0, 183.0, 52.660156, 18.0 ],
													"presentation_rect" : [ 50.0, 183.0, 52.660156, 18.0 ],
													"text" : [ "_$2 $3 $1" ]
												}

											}
, 											{
												"box" : 												{
													"fontname" : "Verdana",
													"fontsize" : 10.0,
													"id" : "obj-7",
													"maxclass" : "newobj",
													"numinlets" : 1,
													"numoutlets" : 2,
													"outlettype" : [ "", "" ],
													"patching_rect" : [ 50.0, 156.0, 51.0, 19.0 ],
													"saved_object_attributes" : 													{
														"ftm_scope" : 0,
														"ftm_objref_conv" : 0
													}
,
													"text" : "ftm.iter"
												}

											}
, 											{
												"box" : 												{
													"comment" : "",
													"id" : "obj-8",
													"maxclass" : "inlet",
													"numinlets" : 0,
													"numoutlets" : 1,
													"outlettype" : [ "bang" ],
													"patching_rect" : [ 50.0, 10.0, 25.0, 25.0 ]
												}

											}
, 											{
												"box" : 												{
													"comment" : "",
													"id" : "obj-9",
													"maxclass" : "inlet",
													"numinlets" : 0,
													"numoutlets" : 1,
													"outlettype" : [ "float" ],
													"patching_rect" : [ 140.0, 10.0, 25.0, 25.0 ]
												}

											}
, 											{
												"box" : 												{
													"comment" : "",
													"id" : "obj-10",
													"maxclass" : "outlet",
													"numinlets" : 1,
													"numoutlets" : 0,
													"patching_rect" : [ 50.0, 215.0, 25.0, 25.0 ]
												}

											}
 ],
										"lines" : [ 											{
												"patchline" : 												{
													"destination" : [ "obj-2", 1 ],
													"hidden" : 0,
													"midpoints" : [  ],
													"source" : [ "obj-11", 0 ]
												}

											}
, 											{
												"patchline" : 												{
													"destination" : [ "obj-7", 0 ],
													"hidden" : 0,
													"midpoints" : [  ],
													"source" : [ "obj-2", 0 ]
												}

											}
, 											{
												"patchline" : 												{
													"destination" : [ "obj-4", 0 ],
													"hidden" : 0,
													"midpoints" : [  ],
													"source" : [ "obj-3", 0 ]
												}

											}
, 											{
												"patchline" : 												{
													"destination" : [ "obj-2", 0 ],
													"hidden" : 0,
													"midpoints" : [  ],
													"source" : [ "obj-4", 0 ]
												}

											}
, 											{
												"patchline" : 												{
													"destination" : [ "obj-10", 0 ],
													"hidden" : 0,
													"midpoints" : [  ],
													"source" : [ "obj-6", 0 ]
												}

											}
, 											{
												"patchline" : 												{
													"destination" : [ "obj-6", 1 ],
													"hidden" : 0,
													"midpoints" : [  ],
													"source" : [ "obj-7", 1 ]
												}

											}
, 											{
												"patchline" : 												{
													"destination" : [ "obj-6", 0 ],
													"hidden" : 0,
													"midpoints" : [  ],
													"source" : [ "obj-7", 0 ]
												}

											}
, 											{
												"patchline" : 												{
													"destination" : [ "obj-3", 0 ],
													"hidden" : 0,
													"midpoints" : [  ],
													"source" : [ "obj-8", 0 ]
												}

											}
, 											{
												"patchline" : 												{
													"destination" : [ "obj-11", 0 ],
													"hidden" : 0,
													"midpoints" : [  ],
													"source" : [ "obj-9", 0 ]
												}

											}
 ]
									}
,
									"patching_rect" : [ 45.0, 205.0, 90.0, 19.0 ],
									"saved_object_attributes" : 									{
										"fontsize" : 10.0,
										"default_fontface" : 0,
										"globalpatchername" : "",
										"default_fontname" : "Verdana",
										"fontname" : "Verdana",
										"default_fontsize" : 10.0,
										"fontface" : 0
									}
,
									"text" : "p Scale&Iterate"
								}

							}
, 							{
								"box" : 								{
									"fontname" : "Verdana",
									"fontsize" : 10.0,
									"id" : "obj-3",
									"maxclass" : "newobj",
									"numinlets" : 1,
									"numoutlets" : 0,
									"patcher" : 									{
										"fileversion" : 1,
										"rect" : [ 45.0, 74.0, 600.0, 426.0 ],
										"bglocked" : 0,
										"defrect" : [ 45.0, 74.0, 600.0, 426.0 ],
										"openrect" : [ 0.0, 0.0, 0.0, 0.0 ],
										"openinpresentation" : 0,
										"default_fontsize" : 10.0,
										"default_fontface" : 0,
										"default_fontname" : "Verdana",
										"gridonopen" : 0,
										"gridsize" : [ 5.0, 5.0 ],
										"gridsnaponopen" : 0,
										"toolbarvisible" : 1,
										"boxanimatetime" : 200,
										"imprint" : 0,
										"enablehscroll" : 1,
										"enablevscroll" : 1,
										"devicewidth" : 0.0,
										"boxes" : [ 											{
												"box" : 												{
													"fontname" : "Verdana",
													"fontsize" : 10.0,
													"id" : "obj-16",
													"maxclass" : "newobj",
													"numinlets" : 2,
													"numoutlets" : 1,
													"outlettype" : [ "float" ],
													"patching_rect" : [ 55.0, 140.0, 35.0, 19.0 ],
													"text" : "* -1."
												}

											}
, 											{
												"box" : 												{
													"fontname" : "Verdana",
													"fontsize" : 10.0,
													"id" : "obj-11",
													"maxclass" : "newobj",
													"numinlets" : 1,
													"numoutlets" : 2,
													"outlettype" : [ "", "" ],
													"patching_rect" : [ 55.0, 115.0, 312.0, 19.0 ],
													"text" : "jcom.dataspace @dataspace angle @input deg @output rad"
												}

											}
, 											{
												"box" : 												{
													"#init" : "",
													"#loadbang" : 0,
													"#triggerall" : 0,
													"#untuple" : 0,
													"fontname" : "Geneva",
													"fontsize" : 10.0,
													"ftm_objref_conv" : 0,
													"ftm_scope" : 0,
													"id" : "obj-1",
													"maxclass" : "ftm.mess",
													"numinlets" : 3,
													"numins" : 3,
													"numoutlets" : 1,
													"outlettype" : [ "" ],
													"patching_rect" : [ 55.0, 265.0, 120.291992, 18.0 ],
													"presentation_rect" : [ 55.0, 265.0, 120.291992, 18.0 ],
													"text" : [ "_($rotate set $1 $2 $3)" ]
												}

											}
, 											{
												"box" : 												{
													"fontname" : "Verdana",
													"fontsize" : 10.0,
													"id" : "obj-3",
													"maxclass" : "message",
													"numinlets" : 2,
													"numoutlets" : 1,
													"outlettype" : [ "" ],
													"patching_rect" : [ 161.0, 233.0, 44.0, 17.0 ],
													"text" : "2 1 $1"
												}

											}
, 											{
												"box" : 												{
													"fontname" : "Verdana",
													"fontsize" : 10.0,
													"id" : "obj-4",
													"maxclass" : "message",
													"numinlets" : 2,
													"numoutlets" : 1,
													"outlettype" : [ "" ],
													"patching_rect" : [ 107.0, 221.0, 44.0, 17.0 ],
													"text" : "1 2 $1"
												}

											}
, 											{
												"box" : 												{
													"fontname" : "Verdana",
													"fontsize" : 10.0,
													"id" : "obj-5",
													"linecount" : 2,
													"maxclass" : "message",
													"numinlets" : 2,
													"numoutlets" : 1,
													"outlettype" : [ "" ],
													"patching_rect" : [ 55.0, 221.0, 48.0, 29.0 ],
													"text" : "1 1 $1, 2 2 $1"
												}

											}
, 											{
												"box" : 												{
													"fontname" : "Verdana",
													"fontsize" : 10.0,
													"id" : "obj-6",
													"maxclass" : "newobj",
													"numinlets" : 2,
													"numoutlets" : 1,
													"outlettype" : [ "float" ],
													"patching_rect" : [ 161.0, 209.0, 38.0, 19.0 ],
													"text" : "* -1."
												}

											}
, 											{
												"box" : 												{
													"fontname" : "Verdana",
													"fontsize" : 10.0,
													"id" : "obj-7",
													"maxclass" : "newobj",
													"numinlets" : 1,
													"numoutlets" : 1,
													"outlettype" : [ "float" ],
													"patching_rect" : [ 107.0, 182.0, 23.0, 19.0 ],
													"text" : "sin"
												}

											}
, 											{
												"box" : 												{
													"fontname" : "Verdana",
													"fontsize" : 10.0,
													"id" : "obj-8",
													"maxclass" : "newobj",
													"numinlets" : 1,
													"numoutlets" : 1,
													"outlettype" : [ "float" ],
													"patching_rect" : [ 55.0, 182.0, 25.0, 19.0 ],
													"text" : "cos"
												}

											}
, 											{
												"box" : 												{
													"fontname" : "Verdana",
													"fontsize" : 10.0,
													"frgb" : [ 0.0, 0.0, 0.0, 1.0 ],
													"id" : "obj-9",
													"maxclass" : "comment",
													"numinlets" : 1,
													"numoutlets" : 0,
													"patching_rect" : [ 50.0, 50.0, 146.0, 19.0 ],
													"text" : "Calculate rotation matrix"
												}

											}
, 											{
												"box" : 												{
													"comment" : "",
													"id" : "obj-10",
													"maxclass" : "inlet",
													"numinlets" : 0,
													"numoutlets" : 1,
													"outlettype" : [ "float" ],
													"patching_rect" : [ 55.0, 75.0, 25.0, 25.0 ]
												}

											}
 ],
										"lines" : [ 											{
												"patchline" : 												{
													"destination" : [ "obj-11", 0 ],
													"hidden" : 0,
													"midpoints" : [  ],
													"source" : [ "obj-10", 0 ]
												}

											}
, 											{
												"patchline" : 												{
													"destination" : [ "obj-16", 0 ],
													"hidden" : 0,
													"midpoints" : [  ],
													"source" : [ "obj-11", 0 ]
												}

											}
, 											{
												"patchline" : 												{
													"destination" : [ "obj-7", 0 ],
													"hidden" : 0,
													"midpoints" : [  ],
													"source" : [ "obj-16", 0 ]
												}

											}
, 											{
												"patchline" : 												{
													"destination" : [ "obj-8", 0 ],
													"hidden" : 0,
													"midpoints" : [  ],
													"source" : [ "obj-16", 0 ]
												}

											}
, 											{
												"patchline" : 												{
													"destination" : [ "obj-1", 0 ],
													"hidden" : 0,
													"midpoints" : [ 170.5, 256.0, 64.5, 256.0 ],
													"source" : [ "obj-3", 0 ]
												}

											}
, 											{
												"patchline" : 												{
													"destination" : [ "obj-1", 0 ],
													"hidden" : 0,
													"midpoints" : [ 116.5, 256.0, 64.5, 256.0 ],
													"source" : [ "obj-4", 0 ]
												}

											}
, 											{
												"patchline" : 												{
													"destination" : [ "obj-1", 0 ],
													"hidden" : 0,
													"midpoints" : [  ],
													"source" : [ "obj-5", 0 ]
												}

											}
, 											{
												"patchline" : 												{
													"destination" : [ "obj-3", 0 ],
													"hidden" : 0,
													"midpoints" : [  ],
													"source" : [ "obj-6", 0 ]
												}

											}
, 											{
												"patchline" : 												{
													"destination" : [ "obj-4", 0 ],
													"hidden" : 0,
													"midpoints" : [  ],
													"source" : [ "obj-7", 0 ]
												}

											}
, 											{
												"patchline" : 												{
													"destination" : [ "obj-6", 0 ],
													"hidden" : 0,
													"midpoints" : [ 116.5, 204.0, 170.5, 204.0 ],
													"source" : [ "obj-7", 0 ]
												}

											}
, 											{
												"patchline" : 												{
													"destination" : [ "obj-5", 0 ],
													"hidden" : 0,
													"midpoints" : [  ],
													"source" : [ "obj-8", 0 ]
												}

											}
 ]
									}
,
									"patching_rect" : [ 145.0, 205.0, 129.0, 19.0 ],
									"saved_object_attributes" : 									{
										"fontsize" : 10.0,
										"default_fontface" : 0,
										"globalpatchername" : "",
										"default_fontname" : "Verdana",
										"fontname" : "Verdana",
										"default_fontsize" : 10.0,
										"fontface" : 0
									}
,
									"text" : "p UpdateRotationMatrix"
								}

							}
, 							{
								"box" : 								{
									"fontname" : "Verdana",
									"fontsize" : 10.0,
									"id" : "obj-4",
									"maxclass" : "newobj",
									"numinlets" : 1,
									"numoutlets" : 2,
									"outlettype" : [ "bang", "float" ],
									"patching_rect" : [ 115.0, 145.0, 50.0, 19.0 ],
									"text" : "t b f"
								}

							}
, 							{
								"box" : 								{
									"fontname" : "Verdana",
									"fontsize" : 10.0,
									"id" : "obj-5",
									"maxclass" : "newobj",
									"numinlets" : 1,
									"numoutlets" : 3,
									"outlettype" : [ "", "", "" ],
									"patching_rect" : [ 45.0, 90.0, 181.0, 19.0 ],
									"text" : "jcom.oscroute /audio/gain /rotate"
								}

							}
, 							{
								"box" : 								{
									"id" : "obj-6",
									"maxclass" : "button",
									"numinlets" : 1,
									"numoutlets" : 1,
									"outlettype" : [ "bang" ],
									"patching_rect" : [ 86.0, 332.0, 15.0, 15.0 ]
								}

							}
, 							{
								"box" : 								{
									"fontname" : "Verdana",
									"fontsize" : 10.0,
									"id" : "obj-7",
									"maxclass" : "newobj",
									"numinlets" : 1,
									"numoutlets" : 0,
									"patching_rect" : [ 48.0, 380.0, 57.0, 19.0 ],
									"saved_object_attributes" : 									{
										"ftm_scope" : 0,
										"ftm_objref_conv" : 0
									}
,
									"text" : "ftm.print"
								}

							}
, 							{
								"box" : 								{
									"fontname" : "Verdana",
									"fontsize" : 10.0,
									"id" : "obj-8",
									"maxclass" : "message",
									"numinlets" : 2,
									"numoutlets" : 1,
									"outlettype" : [ "" ],
									"patching_rect" : [ 48.0, 332.0, 35.0, 17.0 ],
									"text" : "fill 0"
								}

							}
, 							{
								"box" : 								{
									"fontname" : "Verdana",
									"fontsize" : 10.0,
									"id" : "obj-9",
									"maxclass" : "newobj",
									"numinlets" : 1,
									"numoutlets" : 2,
									"outlettype" : [ "bang", "float" ],
									"patching_rect" : [ 45.0, 145.0, 32.0, 19.0 ],
									"text" : "t b f"
								}

							}
, 							{
								"box" : 								{
									"description" : "fmat 4 4",
									"fontname" : "Geneva",
									"fontsize" : 10.0,
									"ftm_objref_conv" : 0,
									"ftm_scope" : 2,
									"id" : "obj-10",
									"maxclass" : "ftm.object",
									"name" : "rotate",
									"numinlets" : 1,
									"numoutlets" : 2,
									"outlettype" : [ "", "" ],
									"patching_rect" : [ 48.0, 358.0, 93.351562, 19.0 ],
									"persistence" : 0,
									"presentation_rect" : [ 48.0, 358.0, 93.351562, 19.0 ],
									"scope" : 0,
									"text" : "fmat 4 4"
								}

							}
, 							{
								"box" : 								{
									"comment" : "",
									"id" : "obj-14",
									"maxclass" : "outlet",
									"numinlets" : 1,
									"numoutlets" : 0,
									"patching_rect" : [ 275.0, 380.0, 25.0, 25.0 ]
								}

							}
, 							{
								"box" : 								{
									"comment" : "",
									"id" : "obj-15",
									"maxclass" : "inlet",
									"numinlets" : 0,
									"numoutlets" : 1,
									"outlettype" : [ "" ],
									"patching_rect" : [ 45.0, 40.0, 25.0, 25.0 ]
								}

							}
, 							{
								"box" : 								{
									"comment" : "",
									"id" : "obj-19",
									"maxclass" : "inlet",
									"numinlets" : 0,
									"numoutlets" : 1,
									"outlettype" : [ "" ],
									"patching_rect" : [ 275.0, 40.0, 25.0, 25.0 ]
								}

							}
, 							{
								"box" : 								{
									"fontname" : "Verdana",
									"fontsize" : 10.0,
									"id" : "obj-20",
									"maxclass" : "newobj",
									"numinlets" : 4,
									"numoutlets" : 5,
									"outlettype" : [ "signal", "signal", "signal", "signal", "list" ],
									"patching_rect" : [ 275.0, 295.0, 109.0, 19.0 ],
									"text" : "matrix~ 4 4 1."
								}

							}
 ],
						"lines" : [ 							{
								"patchline" : 								{
									"destination" : [ "obj-7", 0 ],
									"hidden" : 0,
									"midpoints" : [  ],
									"source" : [ "obj-10", 0 ]
								}

							}
, 							{
								"patchline" : 								{
									"destination" : [ "obj-5", 0 ],
									"hidden" : 0,
									"midpoints" : [  ],
									"source" : [ "obj-15", 0 ]
								}

							}
, 							{
								"patchline" : 								{
									"destination" : [ "obj-21", 0 ],
									"hidden" : 0,
									"midpoints" : [  ],
									"source" : [ "obj-19", 0 ]
								}

							}
, 							{
								"patchline" : 								{
									"destination" : [ "obj-20", 0 ],
									"hidden" : 0,
									"midpoints" : [  ],
									"source" : [ "obj-2", 0 ]
								}

							}
, 							{
								"patchline" : 								{
									"destination" : [ "obj-22", 3 ],
									"hidden" : 0,
									"midpoints" : [  ],
									"source" : [ "obj-20", 3 ]
								}

							}
, 							{
								"patchline" : 								{
									"destination" : [ "obj-22", 2 ],
									"hidden" : 0,
									"midpoints" : [  ],
									"source" : [ "obj-20", 2 ]
								}

							}
, 							{
								"patchline" : 								{
									"destination" : [ "obj-22", 1 ],
									"hidden" : 0,
									"midpoints" : [  ],
									"source" : [ "obj-20", 1 ]
								}

							}
, 							{
								"patchline" : 								{
									"destination" : [ "obj-22", 0 ],
									"hidden" : 0,
									"midpoints" : [  ],
									"source" : [ "obj-20", 0 ]
								}

							}
, 							{
								"patchline" : 								{
									"destination" : [ "obj-20", 3 ],
									"hidden" : 0,
									"midpoints" : [  ],
									"source" : [ "obj-21", 3 ]
								}

							}
, 							{
								"patchline" : 								{
									"destination" : [ "obj-20", 2 ],
									"hidden" : 0,
									"midpoints" : [  ],
									"source" : [ "obj-21", 2 ]
								}

							}
, 							{
								"patchline" : 								{
									"destination" : [ "obj-20", 1 ],
									"hidden" : 0,
									"midpoints" : [  ],
									"source" : [ "obj-21", 1 ]
								}

							}
, 							{
								"patchline" : 								{
									"destination" : [ "obj-20", 0 ],
									"hidden" : 0,
									"midpoints" : [  ],
									"source" : [ "obj-21", 0 ]
								}

							}
, 							{
								"patchline" : 								{
									"destination" : [ "obj-14", 0 ],
									"hidden" : 0,
									"midpoints" : [  ],
									"source" : [ "obj-22", 0 ]
								}

							}
, 							{
								"patchline" : 								{
									"destination" : [ "obj-2", 0 ],
									"hidden" : 0,
									"midpoints" : [  ],
									"source" : [ "obj-4", 0 ]
								}

							}
, 							{
								"patchline" : 								{
									"destination" : [ "obj-3", 0 ],
									"hidden" : 0,
									"midpoints" : [  ],
									"source" : [ "obj-4", 1 ]
								}

							}
, 							{
								"patchline" : 								{
									"destination" : [ "obj-4", 0 ],
									"hidden" : 0,
									"midpoints" : [  ],
									"source" : [ "obj-5", 1 ]
								}

							}
, 							{
								"patchline" : 								{
									"destination" : [ "obj-9", 0 ],
									"hidden" : 0,
									"midpoints" : [  ],
									"source" : [ "obj-5", 0 ]
								}

							}
, 							{
								"patchline" : 								{
									"destination" : [ "obj-10", 0 ],
									"hidden" : 0,
									"midpoints" : [ 95.0, 353.0, 57.5, 353.0 ],
									"source" : [ "obj-6", 0 ]
								}

							}
, 							{
								"patchline" : 								{
									"destination" : [ "obj-10", 0 ],
									"hidden" : 0,
									"midpoints" : [  ],
									"source" : [ "obj-8", 0 ]
								}

							}
, 							{
								"patchline" : 								{
									"destination" : [ "obj-2", 1 ],
									"hidden" : 0,
									"midpoints" : [  ],
									"source" : [ "obj-9", 1 ]
								}

							}
, 							{
								"patchline" : 								{
									"destination" : [ "obj-2", 0 ],
									"hidden" : 0,
									"midpoints" : [  ],
									"source" : [ "obj-9", 0 ]
								}

							}
 ]
					}
,
					"patching_rect" : [ 345.0, 180.0, 109.0, 19.0 ],
					"saved_object_attributes" : 					{
						"fontsize" : 10.0,
						"default_fontface" : 0,
						"globalpatchername" : "",
						"default_fontname" : "Verdana",
						"fontname" : "Verdana",
						"default_fontsize" : 10.0,
						"fontface" : 0
					}
,
					"text" : "p manipulate"
				}

			}
, 			{
				"box" : 				{
					"comment" : "",
					"id" : "obj-16",
					"maxclass" : "inlet",
					"numinlets" : 0,
					"numoutlets" : 1,
					"outlettype" : [ "" ],
					"patching_rect" : [ 435.0, 85.0, 25.0, 25.0 ]
				}

			}
, 			{
				"box" : 				{
					"fontname" : "Verdana",
					"fontsize" : 10.0,
					"id" : "obj-21",
					"linecount" : 3,
					"maxclass" : "newobj",
					"numinlets" : 1,
					"numoutlets" : 2,
					"outlettype" : [ "", "" ],
					"patching_rect" : [ 10.0, 170.0, 145.0, 43.0 ],
					"text" : "jcom.hub @description \"Rotate first order ambisonic signal.\"",
					"varname" : "jmod.hub"
				}

			}
, 			{
				"box" : 				{
					"comment" : "",
					"id" : "obj-23",
					"maxclass" : "inlet",
					"numinlets" : 0,
					"numoutlets" : 1,
					"outlettype" : [ "" ],
					"patching_rect" : [ 10.0, 85.0, 25.0, 25.0 ]
				}

			}
, 			{
				"box" : 				{
					"fontname" : "Verdana",
					"fontsize" : 10.0,
					"id" : "obj-26",
					"linecount" : 2,
					"maxclass" : "newobj",
					"numinlets" : 1,
					"numoutlets" : 3,
					"outlettype" : [ "", "", "" ],
					"patching_rect" : [ 515.0, 230.0, 567.0, 31.0 ],
					"text" : "jcom.parameter rotate @type decimal @ramp/drive scheduler @repetitions/allow 0 @range/bounds -180 180 @range/clipmode none @description \"Rotate 1st order b-field aroudn z-axis.\"",
					"varname" : "jmod.parameter"
				}

			}
, 			{
				"box" : 				{
					"fontname" : "Verdana",
					"fontsize" : 10.0,
					"frgb" : [ 0.0, 0.0, 0.0, 1.0 ],
					"id" : "obj-27",
					"maxclass" : "comment",
					"numinlets" : 1,
					"numoutlets" : 0,
					"patching_rect" : [ 40.0, 30.0, 43.0, 19.0 ],
					"presentation" : 1,
					"presentation_rect" : [ 30.0, 30.0, 43.0, 19.0 ],
					"text" : "Rotate"
				}

			}
, 			{
				"box" : 				{
					"comment" : "",
					"id" : "obj-28",
					"maxclass" : "outlet",
					"numinlets" : 1,
					"numoutlets" : 0,
					"patching_rect" : [ 10.0, 225.0, 25.0, 25.0 ]
				}

			}
, 			{
				"box" : 				{
					"has_gain" : 1,
					"id" : "obj-31",
					"maxclass" : "jcom.ui",
					"numinlets" : 1,
					"numoutlets" : 1,
					"outlettype" : [ "" ],
					"prefix" : "audio",
					"presentation" : 1,
					"presentation_rect" : [ 0.0, 0.0, 300.0, 70.0 ],
					"text" : "/editing_this_module"
				}

			}
 ],
		"lines" : [ 			{
				"patchline" : 				{
					"destination" : [ "obj-11", 0 ],
					"hidden" : 0,
					"midpoints" : [  ],
					"source" : [ "obj-15", 1 ]
				}

			}
, 			{
				"patchline" : 				{
					"destination" : [ "obj-15", 1 ],
					"hidden" : 0,
					"midpoints" : [  ],
					"source" : [ "obj-16", 0 ]
				}

			}
, 			{
				"patchline" : 				{
					"destination" : [ "obj-28", 0 ],
					"hidden" : 0,
					"midpoints" : [  ],
					"source" : [ "obj-21", 0 ]
				}

			}
, 			{
				"patchline" : 				{
					"destination" : [ "obj-21", 0 ],
					"hidden" : 0,
					"midpoints" : [  ],
					"source" : [ "obj-23", 0 ]
				}

			}
, 			{
				"patchline" : 				{
					"destination" : [ "obj-7", 0 ],
					"hidden" : 0,
					"midpoints" : [ 524.5, 267.0, 507.0, 267.0, 507.0, 122.0, 524.5, 122.0 ],
					"source" : [ "obj-26", 0 ]
				}

			}
, 			{
				"patchline" : 				{
					"destination" : [ "obj-15", 0 ],
					"hidden" : 0,
					"midpoints" : [ 354.5, 171.5, 354.5, 171.5 ],
					"source" : [ "obj-32", 0 ]
				}

			}
, 			{
				"patchline" : 				{
					"destination" : [ "obj-21", 0 ],
					"hidden" : 0,
					"midpoints" : [ 94.5, 161.0, 19.5, 161.0 ],
					"source" : [ "obj-36", 0 ]
				}

			}
, 			{
				"patchline" : 				{
					"destination" : [ "obj-21", 0 ],
					"hidden" : 0,
					"midpoints" : [ 129.5, 164.0, 19.5, 164.0 ],
					"source" : [ "obj-37", 0 ]
				}

			}
, 			{
				"patchline" : 				{
					"destination" : [ "obj-26", 0 ],
					"hidden" : 0,
					"midpoints" : [  ],
					"source" : [ "obj-6", 0 ]
				}

			}
, 			{
				"patchline" : 				{
					"destination" : [ "obj-8", 0 ],
					"hidden" : 0,
					"midpoints" : [  ],
					"source" : [ "obj-7", 0 ]
				}

			}
, 			{
				"patchline" : 				{
					"destination" : [ "obj-6", 0 ],
					"hidden" : 0,
					"midpoints" : [  ],
					"source" : [ "obj-8", 0 ]
				}

			}
 ]
	}

}
